# xmcd
#
# Track frame offsets: 
#        200
#        10550
#        24650
#        40550
#        54500
#        69650
#        83975
#        98900
#        111650
#
# Disc length: 1650 seconds
#
# Revision: 0
# Processed by: cddbd v1.4PL0 Copyright (c) Steve Scherf et al.
# Submitted via: ExactAudioCopy v0.90a11
#
DISCID=6d067009
DTITLE=Boxcar Willie - Boxcar's Best
DYEAR=1900
DGENRE=
TTITLE0=This Ole House
TTITLE1=Cold, Cold Heart
TTITLE2=Goodnight Irene
TTITLE3=Good Hearted Woman
TTITLE4=Mom And Dad's Waltz
TTITLE5=L. A. Lady
TTITLE6=I'm Thinking Tonight Of My Blue Eyes
TTITLE7=I'll Fly Away
TTITLE8=Don't Pretend
EXTD=
EXTT0=
EXTT1=
EXTT2=
EXTT3=
EXTT4=
EXTT5=
EXTT6=
EXTT7=
EXTT8=
PLAYORDER=
